# xmcd
#
# Track frame offsets:
#	183
#	23660
#	42803
#	80218
#	102703
#	127483
#
# Disc length: 2027 seconds
#
# Revision: 8
# Processed by: cddbd v1.5.2PL0 Copyright (c) Steve Scherf et al.
# Submitted via: EZCDAudioConverter 1.3.4.1
#
DISCID=5307e906
DTITLE=The B-52's - Roam
DYEAR=1989
DGENRE=
TTITLE0=Roam [7'' Remix]
TTITLE1=Roam [Radio Mix]
TTITLE2=Roam [12'' Remix]
TTITLE3=Bushfire
TTITLE4=Roam [Extended Remix]
TTITLE5=Roam [Instrumental]
EXTD=
EXTT0=
EXTT1=
EXTT2=
EXTT3=
EXTT4=
EXTT5=
PLAYORDER=
